<?xml version="1.0" standalone="no"?>
<!DOCTYPE svg PUBLIC "-//W3C//DTD SVG 20010904//EN"
 "http://www.w3.org/TR/2001/REC-SVG-20010904/DTD/svg10.dtd">
<svg version="1.0" xmlns="http://www.w3.org/2000/svg"
 width="500.000000pt" height="500.000000pt" viewBox="0 0 500.000000 500.000000"
 preserveAspectRatio="xMidYMid meet">
<metadata>
Created by potrace 1.11, written by Peter Selinger 2001-2013
</metadata>
<g transform="translate(0.000000,500.000000) scale(0.100000,-0.100000)"
fill="#000000" stroke="none">
<path d="M4065 4528 c-50 -18 -110 -65 -160 -123 -68 -79 -106 -84 -181 -24
-66 54 -152 89 -214 89 -168 0 -326 -105 -408 -269 -36 -74 -37 -77 -37 -195
0 -118 1 -123 36 -196 20 -41 83 -138 141 -215 57 -77 119 -161 137 -187 l32
-48 -239 0 c-216 0 -242 2 -262 18 -22 18 -22 21 -24 322 -1 332 -4 350 -57
369 -46 16 -57 45 -61 171 -3 96 -8 122 -27 155 -39 70 -136 118 -193 96 -57
-21 -55 -7 -47 -610 6 -417 5 -562 -4 -589 -17 -51 -56 -70 -167 -82 -120 -13
-176 -4 -203 33 l-21 27 47 283 c55 332 67 440 57 522 -9 76 -49 155 -105 210
-112 108 -225 111 -411 9 l-80 -43 -37 49 c-92 123 -188 118 -360 -19 -43 -34
-82 -59 -87 -56 -6 3 -10 41 -10 84 l0 78 -120 8 c-132 7 -182 -2 -202 -38
-17 -31 -13 -137 16 -452 55 -589 55 -627 11 -671 -15 -15 -36 -24 -54 -24
-58 0 -128 -21 -162 -49 -33 -28 -33 -28 -20 -72 17 -57 74 -109 170 -157 l75
-37 793 -5 792 -5 23 -23 c27 -26 26 75 8 -1062 -5 -360 -10 -807 -10 -993 0
-365 4 -398 53 -416 12 -5 103 -13 202 -17 l178 -9 -7 410 c-3 226 -11 655
-16 955 -16 933 -16 1110 2 1150 54 124 206 144 798 106 140 -9 363 -23 495
-31 132 -8 268 -18 303 -21 l62 -6 0 187 c0 254 22 235 -300 255 -152 10 -187
15 -198 28 -12 15 -8 21 25 50 21 19 79 54 128 80 165 85 281 228 330 407 10
35 19 117 22 195 5 118 3 142 -15 192 -37 106 -98 160 -223 199 -66 21 -166
24 -214 7z m-2212 -398 c16 -13 29 -37 36 -67 5 -27 13 -208 17 -404 5 -312 4
-359 -9 -386 -9 -17 -27 -33 -39 -37 -33 -8 -632 -6 -696 3 -62 9 -81 29 -82
85 0 93 80 653 101 708 14 35 83 98 107 98 27 0 90 -47 107 -81 22 -41 47
-161 90 -424 29 -180 39 -223 57 -242 51 -55 101 -14 117 97 10 63 8 105 -9
257 -34 304 -27 357 52 393 57 26 118 26 151 0z"/>
<path d="M1390 2790 c-162 -26 -276 -110 -350 -258 -80 -162 -58 -374 48 -462
20 -17 62 -40 92 -52 52 -21 71 -22 355 -23 336 -2 375 -8 439 -68 63 -60 71
-168 20 -274 -46 -95 -118 -136 -264 -149 -119 -11 -217 20 -307 97 -82 72
-148 96 -336 124 -92 13 -173 27 -179 31 -19 12 -2 -33 44 -114 107 -188 490
-502 613 -502 52 0 98 18 180 70 44 28 116 64 160 80 196 74 244 110 296 226
108 238 87 420 -59 512 -64 40 -113 55 -352 102 -285 57 -397 86 -446 115 -24
14 -45 29 -48 34 -9 14 21 173 43 228 30 76 41 91 86 112 60 27 112 32 186 16
114 -23 179 -64 305 -191 154 -154 159 -153 175 28 11 116 10 128 -7 164 -22
46 -43 57 -175 95 -202 58 -391 80 -519 59z"/>
<path d="M3525 2635 c-38 -7 -77 -14 -86 -14 -23 -1 -124 -71 -185 -128 -150
-141 -219 -293 -217 -483 1 -218 75 -422 200 -552 85 -88 151 -128 289 -175
104 -36 115 -37 244 -38 l135 0 145 74 c169 85 204 114 203 166 -1 41 -38 108
-84 153 -52 51 -84 51 -224 3 -219 -74 -307 -57 -454 88 -117 114 -175 232
-188 376 -14 168 53 261 217 299 165 39 306 8 500 -112 l65 -40 3 32 c6 74 32
110 104 147 45 23 111 86 103 99 -7 12 -205 73 -305 95 -104 23 -373 29 -465
10z"/>
</g>
</svg>
